<svg id="Layer_1" data-name="Layer 1" xmlns="http://www.w3.org/2000/svg" viewBox="0 0 1080 1080"><defs><style>.cls-1{fill:#fff;}</style></defs><path class="cls-1" d="M568,614.94l-9.56-13.58h1.37l8.43,12h-.35l8.54-12h1.26L568,614.94ZM567.47,625V613.79h1.12V625Z"/><path class="cls-1" d="M589.34,625.37a8,8,0,0,1-4.22-1.12,8.33,8.33,0,0,1-3-3,8.48,8.48,0,0,1-1.1-4.31,8.19,8.19,0,0,1,1.1-4.23,8.11,8.11,0,0,1,7.19-4.1,8.1,8.1,0,0,1,4.18,1.1,8.24,8.24,0,0,1,4.08,7.23,8.51,8.51,0,0,1-1.1,4.32,8.33,8.33,0,0,1-3,3A7.93,7.93,0,0,1,589.34,625.37Zm0-1a6.89,6.89,0,0,0,3.64-1,7.24,7.24,0,0,0,2.56-2.68,7.74,7.74,0,0,0,.94-3.83,7.28,7.28,0,0,0-.94-3.71,7.12,7.12,0,0,0-2.56-2.61,7,7,0,0,0-3.64-1,7,7,0,0,0-6.23,3.57,7.34,7.34,0,0,0-.94,3.74,7.64,7.64,0,0,0,.94,3.82,7.21,7.21,0,0,0,2.57,2.66A7,7,0,0,0,589.34,624.36Z"/><path class="cls-1" d="M608.31,625.37a6.49,6.49,0,0,1-3.38-.89,6.2,6.2,0,0,1-2.32-2.49,7.67,7.67,0,0,1-.84-3.69v-9.38h1.08v9.35a7.09,7.09,0,0,0,.68,3.16,5.18,5.18,0,0,0,4.78,3,5,5,0,0,0,4-1.71,6.48,6.48,0,0,0,1.5-4.41v-9.35h1.09v9.38A7.86,7.86,0,0,1,614,622a6.27,6.27,0,0,1-2.31,2.5A6.48,6.48,0,0,1,608.31,625.37Z"/><path class="cls-1" d="M620.07,625v-16.1h1.09V625Zm1.09-9.83-.74-.21a6.49,6.49,0,0,1,1.63-4.75,5.48,5.48,0,0,1,4.07-1.66,5.86,5.86,0,0,1,2.23.42,5.56,5.56,0,0,1,1.91,1.33l-.74.81a4.51,4.51,0,0,0-1.59-1.16,5.26,5.26,0,0,0-2-.35,4.49,4.49,0,0,0-3.46,1.45A5.87,5.87,0,0,0,621.16,615.19Z"/><path class="cls-1" d="M640.16,625l9.63-23.66h1L660.39,625h-1.22L650,602.34h.52L641.35,625Zm4-7.8v-1H656.4v1Z"/><path class="cls-1" d="M665.61,625V601.36h1.11V625Z"/><path class="cls-1" d="M681,625V600.66h1.08v12.18l-.34,3.89.34,4V625Zm8,.35a7.87,7.87,0,0,1-3.34-.7,7.18,7.18,0,0,1-2.59-2,7.33,7.33,0,0,1-1.49-3v-5.49a7,7,0,0,1,4.13-5,8.14,8.14,0,0,1,3.29-.67,7.81,7.81,0,0,1,4.12,1.1,8,8,0,0,1,2.85,3,9.41,9.41,0,0,1,0,8.6,7.78,7.78,0,0,1-7,4.09Zm-.21-1a7.15,7.15,0,0,0,3.7-1,6.71,6.71,0,0,0,2.5-2.62,8.49,8.49,0,0,0,0-7.65,6.73,6.73,0,0,0-2.49-2.61,6.86,6.86,0,0,0-3.6-.94,6.7,6.7,0,0,0-3.57.94,6.63,6.63,0,0,0-2.42,2.61,8.24,8.24,0,0,0-.87,3.87,8.14,8.14,0,0,0,.86,3.79,6.41,6.41,0,0,0,5.89,3.56Z"/><path class="cls-1" d="M707.81,625.37a6.45,6.45,0,0,1-3.37-.89,6.15,6.15,0,0,1-2.33-2.49,7.79,7.79,0,0,1-.84-3.69v-9.38h1.08v9.35a7,7,0,0,0,.69,3.16,5.15,5.15,0,0,0,4.77,3,5,5,0,0,0,4-1.71,6.48,6.48,0,0,0,1.5-4.41v-9.35h1.09v9.38a7.86,7.86,0,0,1-.84,3.68,6.27,6.27,0,0,1-2.31,2.5A6.46,6.46,0,0,1,707.81,625.37Z"/><path class="cls-1" d="M726.57,625.37a7.75,7.75,0,0,1-4.11-1.1,8,8,0,0,1-2.85-3,8.66,8.66,0,0,1-1.05-4.27,8.87,8.87,0,0,1,1.05-4.33,8,8,0,0,1,2.87-3,7.78,7.78,0,0,1,4.09-1.1,8.07,8.07,0,0,1,3.29.67,7.32,7.32,0,0,1,2.65,1.92,6.66,6.66,0,0,1,1.48,3.05v5.49a7.26,7.26,0,0,1-4.07,5A7.88,7.88,0,0,1,726.57,625.37Zm.21-1a6.53,6.53,0,0,0,3.52-1,6.46,6.46,0,0,0,2.38-2.61,8.87,8.87,0,0,0,0-7.66,6.53,6.53,0,0,0-2.41-2.61,6.7,6.7,0,0,0-3.57-.94,6.89,6.89,0,0,0-3.61.94,6.77,6.77,0,0,0-2.48,2.61,8.49,8.49,0,0,0,0,7.65,6.69,6.69,0,0,0,2.52,2.62A7.12,7.12,0,0,0,726.78,624.36Zm7.81.66H733.5v-4.3l.35-4-.35-3.89V600.66h1.09Z"/><path class="cls-1" d="M747.19,625.37a7.75,7.75,0,0,1-4.11-1.1,8,8,0,0,1-2.86-3,8.66,8.66,0,0,1-1.05-4.27,8.87,8.87,0,0,1,1.05-4.33,8,8,0,0,1,2.87-3,7.82,7.82,0,0,1,4.1-1.1,8.1,8.1,0,0,1,3.29.67,7.37,7.37,0,0,1,2.64,1.92,6.67,6.67,0,0,1,1.49,3.05v5.49a7.33,7.33,0,0,1-1.49,3,7.18,7.18,0,0,1-2.59,2A7.84,7.84,0,0,1,747.19,625.37Zm.21-1a6.38,6.38,0,0,0,5.89-3.56,8,8,0,0,0,.86-3.79,8.24,8.24,0,0,0-.87-3.87,6.56,6.56,0,0,0-2.42-2.61,6.65,6.65,0,0,0-3.57-.94,6.7,6.7,0,0,0-6.09,3.55,8.49,8.49,0,0,0,0,7.65,6.69,6.69,0,0,0,2.52,2.62A7.15,7.15,0,0,0,747.4,624.36Zm7.8.66h-1.08v-4.3l.35-4-.35-3.89V600.66h1.08Z"/><path class="cls-1" d="M766.4,625l-7.28-16.1h1.19L767,624h-.8l7-15.12h1.19L766.82,625Zm-4,6.86,3.85-7.91.56,1-3.25,6.86Z"/><path class="cls-1" d="M784.71,609.87v-1h9.59v1ZM789,625v-23h1.08v23Z"/><path class="cls-1" d="M798.18,625V600.66h1.09V625Zm12.46,0V615.4a6,6,0,0,0-1.5-4.24,5.28,5.28,0,0,0-4-1.61,6,6,0,0,0-3,.75,5.58,5.58,0,0,0-2.07,2.05,5.9,5.9,0,0,0-.75,3l-.74-.42a6,6,0,0,1,.9-3.25,6.44,6.44,0,0,1,2.41-2.28,7,7,0,0,1,3.45-.84,6.38,6.38,0,0,1,3.38.88,6,6,0,0,1,2.25,2.41,7.51,7.51,0,0,1,.81,3.54V625Z"/><path class="cls-1" d="M824.22,625.37a8.26,8.26,0,0,1-4.25-1.1,8.09,8.09,0,0,1-3-3,9,9,0,0,1,0-8.56,8.22,8.22,0,0,1,2.94-3,8.48,8.48,0,0,1,7.54-.44,6.73,6.73,0,0,1,2.49,2,7.25,7.25,0,0,1,1.38,3v5.49a7.85,7.85,0,0,1-1.41,3,6.8,6.8,0,0,1-2.46,2A7.62,7.62,0,0,1,824.22,625.37Zm.14-1a6.07,6.07,0,0,0,4.8-2,7.73,7.73,0,0,0,1.78-5.33,8.7,8.7,0,0,0-.82-3.91,6.29,6.29,0,0,0-2.33-2.59,6.6,6.6,0,0,0-3.5-.92,7.22,7.22,0,0,0-3.73,1,7.1,7.1,0,0,0-2.57,2.62,8.15,8.15,0,0,0,0,7.6,6.91,6.91,0,0,0,2.61,2.62A7.29,7.29,0,0,0,824.36,624.36Zm6.55.66v-4.3l.31-4-.31-3.89v-3.92H832V625Z"/><path class="cls-1" d="M835.6,609.87v-1h9.59v1ZM839.87,625v-23H841v23Z"/><path class="cls-1" d="M864.37,625.37a8,8,0,0,1-4.22-1.12,8.35,8.35,0,0,1-3-3,8.58,8.58,0,0,1-1.1-4.31,8.24,8.24,0,0,1,4.08-7.23,8.2,8.2,0,0,1,4.22-1.1,8.33,8.33,0,0,1,3.27.65,7.72,7.72,0,0,1,2.61,1.8l-.74.74a6.82,6.82,0,0,0-2.27-1.6,7.24,7.24,0,0,0-2.87-.57,7,7,0,0,0-6.23,3.57,7.35,7.35,0,0,0-.95,3.74,7.65,7.65,0,0,0,.95,3.82,7.13,7.13,0,0,0,2.57,2.66,7,7,0,0,0,3.66,1,7.42,7.42,0,0,0,2.92-.58,7,7,0,0,0,2.33-1.63l.73.74a7.61,7.61,0,0,1-2.68,1.83A8.34,8.34,0,0,1,864.37,625.37Z"/><path class="cls-1" d="M881.69,625.37a8.28,8.28,0,0,1-4.25-1.1,8.16,8.16,0,0,1-3-3,9,9,0,0,1,0-8.56,8.38,8.38,0,0,1,2.94-3,8.48,8.48,0,0,1,7.54-.44,6.65,6.65,0,0,1,2.49,2,7.25,7.25,0,0,1,1.38,3v5.49a7.72,7.72,0,0,1-1.42,3,6.68,6.68,0,0,1-2.45,2A7.65,7.65,0,0,1,881.69,625.37Zm.14-1a6.07,6.07,0,0,0,4.8-2,7.73,7.73,0,0,0,1.78-5.33,8.7,8.7,0,0,0-.82-3.91,6.23,6.23,0,0,0-2.33-2.59,6.6,6.6,0,0,0-3.5-.92,7.16,7.16,0,0,0-3.72,1,7.05,7.05,0,0,0-2.58,2.62,8.15,8.15,0,0,0,0,7.6,6.91,6.91,0,0,0,2.61,2.62A7.29,7.29,0,0,0,881.83,624.36Zm6.55.66v-4.3l.31-4-.31-3.89v-3.92h1.08V625Z"/><path class="cls-1" d="M895.06,625v-16.1h1.09V625Zm1.09-9.83-.74-.21a6.49,6.49,0,0,1,1.63-4.75,5.49,5.49,0,0,1,4.08-1.66,5.85,5.85,0,0,1,2.22.42,5.56,5.56,0,0,1,1.91,1.33l-.74.81a4.51,4.51,0,0,0-1.59-1.16,5.26,5.26,0,0,0-2-.35,4.49,4.49,0,0,0-3.46,1.45A5.87,5.87,0,0,0,896.15,615.19Z"/><path class="cls-1" d="M915.26,625.37a8.58,8.58,0,0,1-4.33-1.1,8.2,8.2,0,0,1-3-3,9,9,0,0,1,0-8.59,8,8,0,0,1,2.94-3,8.2,8.2,0,0,1,4.22-1.1,7.54,7.54,0,0,1,3.83,1,6.93,6.93,0,0,1,2.61,2.68,8.08,8.08,0,0,1,.94,4,3.91,3.91,0,0,1,0,.43c0,.2,0,.45-.08.76H907.59v-1h14l-.32.25a7,7,0,0,0-.63-3.64,5.78,5.78,0,0,0-2.22-2.47,6.42,6.42,0,0,0-3.45-.89,7.27,7.27,0,0,0-3.69.92,6.59,6.59,0,0,0-2.49,2.56,7.82,7.82,0,0,0-.89,3.8,8,8,0,0,0,.93,3.92,6.64,6.64,0,0,0,2.61,2.62,7.85,7.85,0,0,0,3.92,1,7.49,7.49,0,0,0,3.09-.63,6.13,6.13,0,0,0,2.4-1.89l.74.73a7.7,7.7,0,0,1-2.75,2A8.72,8.72,0,0,1,915.26,625.37Z"/><path class="cls-1" d="M931.46,625.37A7.73,7.73,0,0,1,929,625a7.4,7.4,0,0,1-2-1,8.77,8.77,0,0,1-1.61-1.49l.74-.77a6.61,6.61,0,0,0,2.41,2,6.74,6.74,0,0,0,3,.65,5.26,5.26,0,0,0,3.18-.86,2.76,2.76,0,0,0,1.19-2.36,3.08,3.08,0,0,0-.68-2.1,4.57,4.57,0,0,0-1.77-1.19c-.72-.28-1.49-.54-2.29-.77a18.68,18.68,0,0,1-2.29-.82,4.51,4.51,0,0,1-1.77-1.33,4.07,4.07,0,0,1-.05-4.43,4.19,4.19,0,0,1,1.78-1.43,6.55,6.55,0,0,1,2.73-.53,8.11,8.11,0,0,1,3.15.61,5.1,5.1,0,0,1,2.24,1.77l-.73.74a4.73,4.73,0,0,0-2-1.56,6.59,6.59,0,0,0-2.8-.58,4.42,4.42,0,0,0-3,.88,2.75,2.75,0,0,0-1,2.17,2.62,2.62,0,0,0,.68,1.92,4.47,4.47,0,0,0,1.77,1.09c.72.25,1.48.49,2.29.71a16.35,16.35,0,0,1,2.29.84,4.74,4.74,0,0,1,1.77,1.4,4,4,0,0,1,.68,2.47,3.8,3.8,0,0,1-1.49,3.17A6.23,6.23,0,0,1,931.46,625.37Z"/><path class="cls-1" d="M404.87,542.9a32.48,32.48,0,0,0,8.41-2.68,26.05,26.05,0,0,0,10.89-9.4,27.67,27.67,0,0,0,.07-28.18,26.1,26.1,0,0,0-10.7-9.53,35.49,35.49,0,0,0-16.07-3.44H372.72a12.71,12.71,0,0,0-12.7,12.7v70.36a8.44,8.44,0,0,0,8.44,8.44h3.6a8.44,8.44,0,0,0,8.44-8.44V543.58h2.08l24.68,34.1a8.45,8.45,0,0,0,6.83,3.49H417a8.44,8.44,0,0,0,6.71-13.55Zm-10-15.73c-7.06.92-14.36.11-14.36,1.12V505.61c9,0,24.82-3.27,27.11,9.33C409.17,523.45,402.14,526.23,394.86,527.17Z"/><path class="cls-1" d="M476.07,523.29v.1a22.71,22.71,0,0,0-5.89-4,26.22,26.22,0,0,0-11.48-2.46,28.67,28.67,0,0,0-15.48,4.22,29.76,29.76,0,0,0-10.76,11.65,35.56,35.56,0,0,0-3.95,16.92,34.73,34.73,0,0,0,3.95,16.79,30.75,30.75,0,0,0,10.83,11.65,28.16,28.16,0,0,0,15.41,4.35A26.62,26.62,0,0,0,470.3,580a22.73,22.73,0,0,0,5.77-3.94h0a5.1,5.1,0,0,0,5.09,5.1h9.38a5.1,5.1,0,0,0,5.1-5.1V523.29a5.1,5.1,0,0,0-5.1-5.1h-9.38A5.09,5.09,0,0,0,476.07,523.29Zm-3,37a13.2,13.2,0,0,1-10.18,4.16,13.88,13.88,0,0,1-7.19-1.89,13.62,13.62,0,0,1-5.05-5.24,16.43,16.43,0,0,1,0-15.3,13.54,13.54,0,0,1,12.24-7.12,14.43,14.43,0,0,1,7.38,1.87,12.39,12.39,0,0,1,4.93,5.19,16.49,16.49,0,0,1,1.69,7.58A15.25,15.25,0,0,1,473,560.3Z"/><path class="cls-1" d="M559.31,532.33a30.78,30.78,0,0,0-11-11.67,29.34,29.34,0,0,0-15.74-4.26A26.3,26.3,0,0,0,521,519a23.66,23.66,0,0,0-8.68,7.06,19.66,19.66,0,0,0-3.9,10.17v10.91c-.39.91-.65,1.56-.73,1.82-2.46,7.92-3.51,16.18-5.73,24.14-.64,2.35-9.31,34.15-5.85,34.16h19.7c-1.06,0-.55-16,.28-30.65a23.77,23.77,0,0,0,4.77,2.92,28,28,0,0,0,11.8,2.46,29.3,29.3,0,0,0,15.81-4.35,30.54,30.54,0,0,0,11-11.65,37.49,37.49,0,0,0-.07-33.64ZM528.85,564a13.94,13.94,0,0,1-7.2-1.89,12.86,12.86,0,0,1-4.33-4.22c.21-2.58.42-4.4.57-5.11,1-4.84,3.88-11,3.59-16.34v0a14.18,14.18,0,0,1,7.5-2,13.78,13.78,0,0,1,7.25,1.87C548.18,543.5,543,564,528.85,564Z"/><path class="cls-1" d="M630.14,540.87v30.32a10,10,0,0,1-10,10h0a10,10,0,0,1-10-10V545.27a10.46,10.46,0,0,0-3.11-7.84,10.65,10.65,0,0,0-7.77-3,11.3,11.3,0,0,0-5.58,1.36,10.05,10.05,0,0,0-3.89,3.82,11.29,11.29,0,0,0-1.42,5.7v26.35a9.55,9.55,0,0,1-9.54,9.55H578a9.55,9.55,0,0,1-9.54-9.55V496.37a9.27,9.27,0,0,1,9.28-9.28h1.39a9.28,9.28,0,0,1,9.28,9.28V523a21.1,21.1,0,0,1,4.28-3,26,26,0,0,1,12.69-3.05,26.65,26.65,0,0,1,13,3.05,22,22,0,0,1,8.68,8.42A24.47,24.47,0,0,1,630.14,540.87Z"/><path class="cls-1" d="M737,540.87v33.5a6.81,6.81,0,0,1-6.8,6.8h-6.37a6.8,6.8,0,0,1-6.79-6.8v-29.1a10.46,10.46,0,0,0-3.11-7.84,10.69,10.69,0,0,0-7.78-3,11.32,11.32,0,0,0-5.57,1.36,9.9,9.9,0,0,0-3.88,3.82,11.19,11.19,0,0,0-1.43,5.7v30.84a5.06,5.06,0,0,1-5.05,5.06h-9.86a5.06,5.06,0,0,1-5.05-5.06V523.24a5,5,0,0,1,5.05-5h9.86a5,5,0,0,1,5.05,5h0a22.73,22.73,0,0,1,4.73-3.3,27.46,27.46,0,0,1,13-3.05,23.42,23.42,0,0,1,20.87,12A24,24,0,0,1,737,540.87Z"/><path class="cls-1" d="M652.69,509.63a10.19,10.19,0,0,1-7.65-3.24,10.84,10.84,0,0,1-3.11-7.77,10.57,10.57,0,0,1,3.11-7.78,10.42,10.42,0,0,1,7.65-3.11,10.07,10.07,0,0,1,7.71,3.11,10.91,10.91,0,0,1,2.92,7.78,11.19,11.19,0,0,1-2.92,7.77A9.86,9.86,0,0,1,652.69,509.63Z"/><rect class="cls-1" x="642.71" y="518.19" width="19.96" height="62.99" rx="9.98"/><path class="cls-1" d="M793.08,523.3v.1a23.1,23.1,0,0,0-5.91-4,26.07,26.07,0,0,0-11.46-2.46,28.67,28.67,0,0,0-15.48,4.22,29.76,29.76,0,0,0-10.76,11.65,35.56,35.56,0,0,0-4,16.92,34.74,34.74,0,0,0,4,16.79,30.85,30.85,0,0,0,10.81,11.65,28.28,28.28,0,0,0,15.43,4.35,26.65,26.65,0,0,0,11.6-2.46,22.5,22.5,0,0,0,5.77-4h0a5.11,5.11,0,0,0,5.11,5.11h9.35a5.11,5.11,0,0,0,5.11-5.11V523.3a5.11,5.11,0,0,0-5.11-5.11h-9.35A5.11,5.11,0,0,0,793.08,523.3Zm-3.06,37a13.13,13.13,0,0,1-10.17,4.16,13.82,13.82,0,0,1-7.18-1.89,13.66,13.66,0,0,1-5.07-5.24,16.58,16.58,0,0,1,0-15.3,13.6,13.6,0,0,1,12.25-7.12,14.45,14.45,0,0,1,7.39,1.87,12.51,12.51,0,0,1,4.93,5.19,16.49,16.49,0,0,1,1.68,7.58A15.17,15.17,0,0,1,790,560.3Z"/><path class="cls-1" d="M879.62,489.67h-3.68a10.92,10.92,0,0,0-10.15,6.9l-28.9,73.15a8.37,8.37,0,0,0,7.78,11.45h3a8.38,8.38,0,0,0,7.85-5.48l4-11h35.82l3.55,9.87a10,10,0,0,0,9.39,6.59h0a10,10,0,0,0,9.28-13.62L889.77,496.6A10.91,10.91,0,0,0,879.62,489.67Zm-13.93,58.45,12-32.47,11.71,32.47Z"/><path class="cls-1" d="M307.76,561.07a14.81,14.81,0,0,1,19.71,10.36c1.26,5.24,2.49,10.5,3.49,15.8.72,3.81,2.75,8.5.56,12.19-1.87,3.13-6,3.75-9.2,4.65-7.06,2-14.13,4-21.28,5.68A172.72,172.72,0,0,1,258.4,614c-12.09-.31-24.64-2.07-34.69-8.81-9.75-6.54-16.88-19.3-13.28-31.14,5.91-19.44,30-22.26,42.68-35.44,6.54-6.81,10.05-17.77,5.07-25.8-8.11-13.07-22.62-8.89-32.49-.35-12.58,10.89-18.89,25.93-21.72,42-.19,1.12-1.2,7.07-2.26,13.43a21.24,21.24,0,0,1-20.23,17.7l-32.61,1.11c-9.54.33-12.57-7.34-9.67-15.17,11.71-31.62,25.78-64.75,48.5-90.14,17.22-19.25,41-33.9,66.73-35.22s53,13,62.17,37.17c7.14,18.88,2.37,41.05-9.72,57.22s-30.66,26.68-50.19,31.79C271,573.89,293,566.77,307.76,561.07Z"/><path class="cls-1" d="M927.62,573.43v-76a9.11,9.11,0,0,1,9.12-9.11h0a9.11,9.11,0,0,1,9.11,9.11v76a9.11,9.11,0,0,1-9.11,9.11h0A9.11,9.11,0,0,1,927.62,573.43Z"/></svg>